<svg xmlns="http://www.w3.org/2000/svg" xmlns:xlink="http://www.w3.org/1999/xlink" width="1340px" height="810px" viewBox="0 0  1340 810" preserveAspectRatio="xMidYMid meet" ><rect id="svgEditorBackground" x="0" y="0" width="1340" height="810" style="fill: none; stroke: none;"/><defs id="svgEditorDefs"><linearGradient gradientUnits="objectBoundingBox" id="lgrd2-fire" spreadMethod="pad" x1="0%" x2="100%" y1="0%" y2="0%"><stop offset="0%" style="stop-color:rgb(255,255,0);stop-opacity:1"/><stop offset="100%" style="stop-color:rgb(255,0,0);stop-opacity:1"/></linearGradient></defs><path d="M429,231l0,-1l-4,-1l-11,-1l-10,-1l-8,0l-3,0l-1,0l-1,0l-1,1l0,1l-3,6l-2,4l-2,3l0,1l-1,1l-2,2l-1,1l-3,2l-3,2l-2,1l-1,1l-2,0l-3,0l-5,1l-3,1l-1,1l-1,1l0,1l0,3l-1,5l0,2l0,1l-1,2l-1,1l-1,1l-4,4l-4,4l-1,1l-1,2l0,1l-1,1l-4,4l-5,4l-2,1l-1,4l-2,2l0,4l0,2l0,11l0,1l-1,0l0,2l-3,1l-7,4l-5,3l-2,3l-1,1l-2,5l-2,1l-1,2l-1,2l-2,3l-3,5l-1,2l0,1l-1,1l0,1l0,5l0,6l0,3l0,4l0,1l0,4l-2,7l-2,4l-2,2l-1,1l-2,2l-3,4l-1,4l0,4l-2,2l0,5l-1,1l0,1l0,2l0,6l-1,2l-1,16l1,3l0,3l0,7l0,6l0,6l0,1l3,5l0,1l4,6l1,3l1,4l1,2l0,2l2,3l3,6l8,10l5,4l1,0l4,1l2,1l2,3l2,2l2,3l9,6l7,4l10,5l5,2l1,1l9,4l10,5l10,2l4,1l2,0l1,0l6,0l8,0l5,0l2,0l8,0l2,0l4,0l3,0l2,0l7,0l8,0l6,0l17,1l3,-1l2,0l3,-2l1,-2l7,-8l4,-2l6,0l6,-1l5,0l6,0l6,0l9,2l18,2l1,0l6,0l2,-1l0,-1l1,0l3,-3l15,-3l9,-3l0,-1l0,-2l0,-1l2,-4l1,-3l6,-7l2,0l4,-1l9,-6l2,-2l1,-1l1,-1l2,-1l3,-3l1,0l3,-2l6,0l3,-1l1,0l2,-2l0,-1l1,0l3,-1l1,-1l8,-2l5,-1l4,0l6,0l7,0l5,0l9,0l7,0l14,2l6,2l4,2l3,0l3,0l2,0l2,0l6,0l8,0l11,0l7,0l5,0l1,0l5,0l13,0l14,-2l1,-1l4,0l2,0l5,-1l1,-2l1,0l1,0l5,0l6,0l1,0l10,4l7,2l5,0l1,0l0,-1l0,-5l0,-5l-2,-4l0,-1l-1,-2l-2,-3l-1,-2l-2,-3l-4,-2l-3,-1l-10,0l-5,0l-5,0l-5,0l-2,0l-3,0l-7,-1l-2,-1l-3,0l-2,0l-5,0l-8,-2l-3,-1l-7,-6l-1,-1l-5,-8l-10,-8l-13,-6l-9,-4l-15,-7l-3,-1l-11,-2l-13,-3l-13,-1l-25,-5l-14,-5l-4,-2l-1,-1l-2,-1l-2,-3l-6,-6l-6,-6l-2,-3l-6,-5l-5,-8l-3,-3l-2,-2l-8,-5l-11,-6l-2,-1l-8,-4l-3,-3l-2,-5l-2,-2l-3,-9l-1,-5l0,-4l0,-3l-1,-2l0,-2l0,-4l-6,-11l-4,-6l-2,-3l-3,-3l-2,-2l-1,-2l-1,0l-1,-4l-6,-4l-3,-4l-8,-7l-9,-7l-8,-3l-7,-3l-6,0l-4,-1l-2,-2l-1,0l-3,-1l-3,0l-2,0l-1,0l-1,0l-2,0l-4,-2l-3,0l-2,0l-2,-1l-1,-1l-1,0l-1,-1l-2,-3l0,-1l-1,-1l-2,-1l0,-1l-1,0l-2,-1l-1,-1l-2,-2l-1,0l-1,0" style="stroke:maroon;fill:url(#lgrd2-fire);stroke-width:1px;" id="e1_freepath"/></svg>